<svg id="svg" version="1.1" xmlns="http://www.w3.org/2000/svg" xmlns:xlink="http://www.w3.org/1999/xlink" viewBox="0, 0, 400,351.8796992481203"><g id="svgg"><path id="path0" d="M267.254 51.469 C 266.434 51.695,265.698 52.273,265.056 53.193 C 264.525 53.955,263.852 54.577,263.560 54.577 C 263.267 54.577,263.028 54.699,263.028 54.848 C 263.028 54.996,262.284 55.968,261.375 57.007 L 259.722 58.897 260.643 59.689 C 261.149 60.125,261.915 61.173,262.345 62.019 C 262.775 62.864,263.653 64.100,264.296 64.764 C 264.939 65.428,265.565 66.429,265.688 66.988 C 265.811 67.548,266.174 68.105,266.494 68.226 C 267.348 68.549,267.788 69.061,268.628 70.709 C 269.042 71.520,269.521 72.183,269.692 72.183 C 269.863 72.183,270.441 72.936,270.975 73.856 C 271.509 74.776,272.474 76.077,273.119 76.748 C 273.763 77.418,274.458 78.475,274.663 79.096 C 274.868 79.716,275.423 80.478,275.896 80.788 C 276.370 81.098,276.982 81.891,277.257 82.550 C 277.533 83.209,278.140 83.998,278.607 84.304 C 279.073 84.610,279.915 85.802,280.477 86.953 C 281.040 88.103,281.834 89.198,282.243 89.384 C 282.652 89.570,283.273 90.332,283.622 91.076 C 283.971 91.821,284.472 92.556,284.734 92.711 C 284.997 92.867,285.743 93.817,286.392 94.824 C 287.041 95.831,287.962 97.051,288.439 97.535 C 290.362 99.485,290.583 101.990,288.900 102.757 C 288.215 103.069,261.043 103.179,177.184 103.211 C 116.238 103.234,65.898 103.354,65.317 103.478 L 64.261 103.704 64.261 114.437 L 64.261 125.169 65.317 125.395 C 65.898 125.519,116.316 125.640,177.357 125.663 L 288.341 125.704 289.292 126.522 C 290.512 127.572,290.270 129.375,288.679 131.069 C 288.086 131.701,287.063 133.042,286.406 134.049 C 285.750 135.056,284.997 136.007,284.734 136.162 C 284.472 136.317,283.971 137.053,283.622 137.797 C 283.273 138.541,282.656 139.307,282.251 139.499 C 281.846 139.690,281.118 140.657,280.634 141.648 C 280.150 142.638,279.159 144.039,278.433 144.760 C 277.707 145.481,277.113 146.295,277.113 146.569 C 277.113 146.843,276.640 147.488,276.062 148.003 C 275.484 148.518,274.778 149.497,274.493 150.179 C 274.208 150.861,273.514 151.853,272.951 152.382 C 272.388 152.912,271.494 154.099,270.964 155.019 C 270.435 155.940,269.800 156.812,269.554 156.956 C 269.307 157.100,268.762 157.898,268.341 158.729 C 267.921 159.560,267.202 160.382,266.744 160.556 C 266.235 160.750,265.823 161.269,265.688 161.887 C 265.565 162.445,264.918 163.465,264.249 164.153 C 263.580 164.842,262.743 166.054,262.388 166.847 C 262.033 167.640,261.319 168.621,260.801 169.029 C 259.629 169.950,259.611 170.531,260.732 171.266 C 261.212 171.580,261.846 172.303,262.139 172.871 C 262.433 173.439,263.099 174.111,263.618 174.364 C 264.138 174.617,264.824 175.298,265.142 175.876 C 265.683 176.859,267.410 177.709,269.027 177.790 C 269.325 177.805,270.595 176.816,271.849 175.592 C 273.103 174.369,274.368 173.220,274.661 173.040 C 274.953 172.859,275.459 172.292,275.785 171.779 C 276.110 171.267,276.859 170.634,277.449 170.373 C 278.039 170.112,278.521 169.738,278.521 169.541 C 278.521 168.976,280.256 167.254,280.824 167.254 C 281.107 167.254,281.338 167.107,281.338 166.928 C 281.338 166.297,283.170 164.437,283.791 164.437 C 284.165 164.437,284.607 163.989,284.877 163.337 C 285.155 162.667,285.771 162.054,286.455 161.768 C 287.117 161.492,287.755 160.872,288.009 160.257 C 288.256 159.661,288.896 159.027,289.506 158.774 C 290.127 158.517,290.711 157.932,290.907 157.369 C 291.101 156.811,291.685 156.221,292.293 155.970 C 292.871 155.730,293.576 155.084,293.861 154.534 C 294.145 153.983,294.827 153.301,295.376 153.017 C 295.925 152.733,296.640 152.096,296.964 151.601 C 297.288 151.107,298.183 150.304,298.953 149.818 C 299.722 149.332,300.352 148.701,300.352 148.415 C 300.352 148.130,300.973 147.504,301.733 147.025 C 302.492 146.545,303.216 145.828,303.343 145.430 C 303.469 145.032,304.174 144.399,304.910 144.024 C 305.646 143.649,306.331 143.022,306.434 142.631 C 306.536 142.239,307.183 141.587,307.872 141.181 C 308.560 140.774,309.223 140.130,309.343 139.750 C 309.464 139.369,310.145 138.690,310.857 138.241 C 311.569 137.792,312.375 137.005,312.649 136.494 C 312.923 135.982,313.296 135.563,313.479 135.563 C 313.661 135.563,314.492 134.890,315.326 134.067 C 318.674 130.761,327.438 122.418,327.793 122.198 C 329.555 121.109,329.930 119.749,329.930 114.437 C 329.930 108.720,329.782 108.286,327.078 106.067 C 326.419 105.526,324.591 103.821,323.015 102.278 C 321.439 100.735,318.746 98.153,317.029 96.542 C 315.313 94.930,313.647 93.346,313.328 93.021 C 312.400 92.076,311.304 91.024,307.844 87.753 C 306.058 86.065,304.315 84.409,303.971 84.073 C 302.640 82.776,301.687 81.832,300.852 80.986 C 300.375 80.502,299.735 79.868,299.431 79.577 C 299.127 79.287,298.220 78.400,297.414 77.607 C 296.609 76.814,295.596 75.977,295.162 75.748 C 294.728 75.519,294.142 74.883,293.858 74.335 C 293.575 73.787,292.858 73.138,292.266 72.892 C 291.627 72.628,291.101 72.100,290.975 71.596 C 290.847 71.086,290.233 70.477,289.437 70.070 C 288.610 69.649,288.027 69.059,287.888 68.502 C 287.745 67.935,287.238 67.432,286.498 67.123 C 285.772 66.820,285.161 66.221,284.877 65.536 C 284.621 64.918,284.161 64.437,283.826 64.437 C 283.109 64.437,281.823 63.297,281.542 62.413 C 281.431 62.062,280.887 61.604,280.334 61.395 C 279.753 61.176,279.122 60.549,278.839 59.909 C 278.570 59.301,278.138 58.803,277.880 58.803 C 277.622 58.803,276.960 58.315,276.410 57.718 C 275.003 56.194,275.031 56.220,272.930 54.338 C 271.889 53.405,270.711 52.284,270.314 51.849 C 269.535 50.994,269.148 50.946,267.254 51.469 M124.480 180.268 C 124.362 180.459,123.679 180.776,122.960 180.973 C 122.073 181.217,121.400 181.727,120.859 182.567 C 120.422 183.247,119.836 183.803,119.557 183.803 C 119.278 183.803,118.607 184.397,118.066 185.123 C 117.524 185.849,116.855 186.586,116.579 186.759 C 116.302 186.933,115.346 187.804,114.455 188.696 C 113.563 189.587,110.633 192.377,107.943 194.894 C 105.253 197.412,102.320 200.185,101.426 201.056 C 100.531 201.928,98.300 204.044,96.467 205.759 C 94.634 207.474,92.421 209.545,91.549 210.360 C 90.678 211.175,89.723 211.990,89.428 212.171 C 89.133 212.352,88.601 212.956,88.246 213.513 C 87.892 214.070,87.182 214.685,86.670 214.878 C 86.158 215.072,85.502 215.726,85.211 216.330 C 84.921 216.935,84.258 217.631,83.739 217.877 C 83.219 218.124,82.464 218.860,82.060 219.513 C 81.656 220.167,80.972 220.793,80.540 220.904 C 80.107 221.016,79.476 221.601,79.136 222.204 C 78.796 222.808,78.049 223.479,77.476 223.695 C 76.869 223.924,76.256 224.517,76.008 225.116 C 75.759 225.718,75.115 226.338,74.452 226.615 C 73.746 226.910,73.238 227.421,73.099 227.976 C 72.959 228.534,72.371 229.123,71.518 229.557 C 70.772 229.938,70.080 230.560,69.980 230.940 C 69.881 231.319,69.148 232.041,68.351 232.545 C 67.554 233.048,66.901 233.701,66.901 233.995 C 66.901 234.290,66.359 234.851,65.696 235.242 C 61.537 237.696,61.402 250.173,65.512 252.299 C 66.055 252.579,66.602 253.134,66.728 253.530 C 66.854 253.927,67.586 254.649,68.355 255.134 C 69.123 255.619,69.863 256.316,69.999 256.681 C 70.135 257.047,70.799 257.719,71.474 258.173 C 72.149 258.628,72.886 259.372,73.113 259.826 C 73.339 260.280,74.001 260.883,74.584 261.165 C 75.166 261.447,75.819 262.103,76.034 262.623 C 76.250 263.143,76.917 263.786,77.518 264.052 C 78.119 264.318,78.866 264.980,79.178 265.524 C 79.490 266.068,80.093 266.671,80.517 266.865 C 80.942 267.058,81.655 267.710,82.101 268.314 C 82.547 268.917,83.430 269.731,84.062 270.122 C 84.695 270.513,85.303 271.192,85.413 271.631 C 85.525 272.077,86.138 272.679,86.805 272.997 C 87.460 273.309,88.245 274.046,88.549 274.635 C 88.854 275.223,89.268 275.704,89.471 275.704 C 89.673 275.704,90.580 276.409,91.486 277.270 C 92.392 278.131,94.629 280.231,96.455 281.935 C 98.282 283.640,100.507 285.748,101.400 286.620 C 102.293 287.491,105.298 290.343,108.078 292.958 C 110.858 295.572,113.862 298.438,114.753 299.325 C 115.644 300.213,116.537 301.005,116.738 301.086 C 116.939 301.166,117.472 301.758,117.924 302.401 C 118.375 303.044,119.125 303.715,119.590 303.891 C 120.055 304.068,120.588 304.614,120.774 305.104 C 120.960 305.594,121.552 306.164,122.088 306.372 C 122.624 306.580,123.474 306.952,123.975 307.199 C 124.767 307.590,124.976 307.562,125.560 306.985 C 125.930 306.620,127.288 305.315,128.578 304.085 C 132.329 300.506,132.888 297.797,130.204 296.204 C 129.677 295.891,129.008 295.041,128.717 294.314 C 128.427 293.588,127.867 292.821,127.474 292.611 C 127.081 292.400,126.379 291.481,125.915 290.568 C 125.450 289.655,124.642 288.512,124.120 288.028 C 123.598 287.544,122.869 286.559,122.500 285.839 C 122.131 285.119,121.531 284.371,121.168 284.177 C 120.805 283.982,120.254 283.191,119.945 282.418 C 119.636 281.645,118.974 280.745,118.474 280.417 C 117.974 280.090,117.235 279.174,116.831 278.383 C 116.427 277.591,115.497 276.229,114.764 275.356 C 114.030 274.482,113.323 273.332,113.191 272.799 C 113.060 272.267,112.759 271.831,112.523 271.831 C 112.003 271.831,110.563 270.352,110.563 269.817 C 110.563 269.606,110.039 268.805,109.397 268.037 C 108.756 267.269,107.709 265.828,107.072 264.835 C 106.434 263.841,105.765 263.028,105.585 263.028 C 105.404 263.028,104.966 262.350,104.611 261.521 C 104.233 260.639,103.594 259.845,103.072 259.607 C 101.461 258.873,101.517 256.208,103.161 255.377 C 103.456 255.228,154.085 255.025,215.669 254.927 C 277.254 254.829,327.680 254.710,327.729 254.663 C 327.777 254.616,327.817 249.745,327.817 243.838 C 327.817 237.931,327.777 233.060,327.729 233.013 C 327.680 232.966,277.247 232.847,215.654 232.749 C 109.209 232.579,103.619 232.540,102.713 231.946 C 101.330 231.040,101.472 229.866,103.169 228.169 C 103.944 227.394,104.577 226.520,104.577 226.226 C 104.577 225.932,105.132 225.153,105.810 224.495 C 106.488 223.837,107.044 223.166,107.045 223.005 C 107.047 222.843,107.800 221.733,108.718 220.536 C 109.636 219.340,110.666 217.859,111.007 217.246 C 111.347 216.632,111.943 216.047,112.331 215.945 C 112.719 215.844,113.139 215.350,113.265 214.848 C 113.391 214.346,114.200 213.068,115.062 212.010 C 115.924 210.951,116.783 209.647,116.969 209.113 C 117.155 208.578,117.850 207.727,118.513 207.222 C 119.176 206.716,119.718 206.073,119.718 205.793 C 119.718 205.513,120.244 204.689,120.887 203.962 C 121.530 203.235,122.396 202.076,122.812 201.385 C 123.228 200.695,123.908 199.823,124.322 199.449 C 124.737 199.074,125.455 198.021,125.918 197.108 C 126.381 196.195,127.081 195.276,127.474 195.065 C 127.867 194.855,128.427 194.088,128.717 193.362 C 129.008 192.635,129.677 191.785,130.204 191.473 C 132.326 190.213,132.167 185.745,129.975 185.050 C 129.606 184.932,128.888 184.208,128.379 183.439 C 127.871 182.671,127.311 182.042,127.135 182.042 C 126.959 182.042,126.338 181.565,125.754 180.982 C 125.171 180.399,124.598 180.078,124.480 180.268 " stroke="none" fill="#000000" fill-rule="evenodd"></path><path id="path2" d="M266.872 49.675 C 265.341 50.507,259.244 56.763,258.782 57.978 C 258.398 58.987,258.699 59.706,260.382 61.796 C 261.006 62.570,261.762 63.683,262.063 64.268 C 262.364 64.853,262.999 65.724,263.475 66.205 C 263.950 66.685,264.583 67.553,264.882 68.134 C 265.181 68.715,265.833 69.542,266.331 69.972 C 266.828 70.402,267.454 71.277,267.721 71.915 C 267.987 72.554,268.863 73.836,269.666 74.764 C 270.470 75.692,271.127 76.595,271.127 76.770 C 271.127 76.946,271.642 77.631,272.271 78.293 C 272.901 78.955,273.732 79.979,274.120 80.567 C 275.839 83.180,277.706 85.772,278.464 86.597 C 278.916 87.090,279.502 88.009,279.766 88.641 C 280.030 89.272,280.409 89.789,280.608 89.789 C 280.808 89.789,281.692 90.858,282.573 92.165 C 284.301 94.728,284.874 95.520,287.351 98.768 C 289.098 101.059,289.002 101.814,286.912 102.213 C 286.127 102.362,286.131 102.371,286.998 102.417 C 287.541 102.446,288.217 102.134,288.680 101.640 L 289.454 100.816 286.112 96.322 C 284.274 93.850,282.680 91.541,282.569 91.192 C 282.458 90.842,281.980 90.303,281.508 89.993 C 281.035 89.683,280.408 88.966,280.115 88.398 C 279.540 87.286,276.637 83.236,275.178 81.510 C 274.685 80.927,274.039 79.976,273.743 79.397 C 273.447 78.819,272.927 78.107,272.587 77.817 C 272.248 77.526,271.519 76.576,270.967 75.704 C 270.415 74.833,269.748 73.992,269.485 73.836 C 269.221 73.680,268.609 72.768,268.123 71.810 C 267.638 70.852,266.913 69.871,266.513 69.629 C 266.113 69.388,265.396 68.430,264.920 67.501 C 264.445 66.572,263.817 65.720,263.526 65.609 C 263.234 65.497,262.610 64.644,262.138 63.713 C 261.667 62.783,261.113 61.918,260.908 61.791 C 260.703 61.664,260.143 60.940,259.664 60.182 L 258.794 58.803 259.647 57.482 C 261.487 54.636,267.624 49.296,269.054 49.296 C 269.188 49.296,271.203 51.158,273.533 53.433 C 275.862 55.709,279.926 59.630,282.565 62.148 C 291.879 71.034,294.193 73.249,294.489 73.560 C 295.554 74.675,296.428 75.520,299.439 78.345 C 301.297 80.088,304.710 83.336,307.024 85.563 C 309.338 87.790,312.447 90.722,313.934 92.077 C 315.420 93.433,318.584 96.444,320.965 98.768 C 323.346 101.092,326.261 103.864,327.442 104.930 C 330.675 107.846,330.986 108.681,330.986 114.449 C 330.986 120.168,330.784 120.730,327.671 123.696 C 326.492 124.819,323.528 127.671,321.083 130.034 C 318.639 132.398,315.428 135.440,313.949 136.796 C 312.470 138.151,309.372 141.083,307.065 143.310 C 304.758 145.537,301.338 148.785,299.464 150.528 C 297.590 152.271,295.796 153.997,295.476 154.364 C 295.156 154.730,294.603 155.285,294.247 155.596 C 293.892 155.907,292.038 157.667,290.129 159.507 C 288.220 161.347,284.659 164.754,282.216 167.077 C 279.773 169.401,277.405 171.677,276.955 172.135 C 273.098 176.056,269.345 179.577,269.024 179.577 C 268.247 179.577,265.853 178.056,264.710 176.837 C 264.036 176.117,262.822 174.923,262.012 174.183 C 261.203 173.443,260.134 172.223,259.636 171.471 L 258.731 170.104 259.542 168.943 C 259.988 168.304,260.781 167.227,261.303 166.549 C 261.825 165.871,262.359 164.960,262.488 164.524 C 262.618 164.088,263.029 163.568,263.403 163.368 C 263.777 163.168,264.384 162.416,264.753 161.696 C 265.122 160.976,265.852 159.991,266.374 159.507 C 266.896 159.023,267.702 157.883,268.165 156.974 C 268.627 156.065,269.217 155.194,269.474 155.037 C 269.732 154.881,270.471 153.976,271.117 153.027 C 271.763 152.077,272.576 151.016,272.923 150.669 C 273.270 150.322,273.822 149.520,274.149 148.887 C 274.476 148.255,275.118 147.443,275.576 147.083 C 276.034 146.722,276.408 146.251,276.408 146.035 C 276.408 145.819,277.099 144.761,277.942 143.684 C 278.786 142.607,279.740 141.212,280.062 140.584 C 280.385 139.957,281.017 139.202,281.467 138.907 C 281.917 138.612,282.459 137.991,282.670 137.527 C 282.881 137.063,283.579 135.988,284.221 135.137 C 284.862 134.287,285.704 133.146,286.092 132.602 C 286.479 132.058,287.391 130.879,288.118 129.983 C 289.602 128.154,289.609 127.977,288.244 126.958 L 287.272 126.232 175.766 126.056 C 114.438 125.960,63.983 125.744,63.644 125.579 C 62.696 125.114,62.696 103.759,63.644 103.295 C 63.983 103.129,114.093 102.913,175.000 102.816 L 285.739 102.639 175.176 102.557 C 86.605 102.491,64.438 102.564,63.732 102.921 L 62.852 103.366 62.852 114.418 L 62.852 125.471 63.908 126.090 C 64.910 126.677,70.722 126.710,176.166 126.735 C 281.365 126.759,287.411 126.794,288.182 127.375 L 288.996 127.989 287.456 130.016 C 286.609 131.130,285.225 132.953,284.382 134.067 C 283.538 135.180,282.584 136.605,282.262 137.233 C 281.939 137.860,281.283 138.631,280.803 138.946 C 280.322 139.260,279.930 139.709,279.930 139.944 C 279.930 140.370,277.012 144.504,275.069 146.831 C 274.503 147.509,273.772 148.586,273.445 149.226 C 273.118 149.865,272.614 150.479,272.326 150.590 C 272.037 150.700,271.503 151.366,271.138 152.068 C 270.773 152.770,269.984 153.874,269.384 154.520 C 268.784 155.166,268.072 156.226,267.800 156.876 C 267.529 157.525,266.883 158.423,266.366 158.870 C 265.848 159.317,265.140 160.238,264.792 160.915 C 264.444 161.593,263.809 162.464,263.382 162.851 C 262.954 163.238,262.364 164.019,262.070 164.587 C 261.777 165.155,260.932 166.384,260.193 167.319 C 257.777 170.375,257.801 170.451,262.812 175.632 C 267.117 180.081,268.691 180.736,270.579 178.861 C 271.171 178.274,273.191 176.333,275.069 174.548 C 276.946 172.763,278.664 171.119,278.885 170.894 C 280.551 169.202,281.158 168.595,282.018 167.757 C 282.557 167.232,283.140 166.680,283.313 166.531 C 284.560 165.454,287.473 162.695,293.147 157.218 C 296.759 153.732,301.085 149.583,302.762 147.998 C 304.438 146.413,307.892 143.112,310.438 140.664 C 312.983 138.215,315.360 136.003,315.719 135.748 C 316.079 135.494,317.730 133.962,319.389 132.344 C 321.048 130.725,324.163 127.720,326.311 125.665 C 331.480 120.721,331.690 120.282,331.690 114.435 C 331.690 108.832,331.355 108.022,327.541 104.424 C 326.134 103.097,323.827 100.885,322.413 99.509 C 321.000 98.133,317.961 95.264,315.659 93.134 C 313.358 91.004,310.249 88.072,308.751 86.620 C 307.252 85.167,304.630 82.659,302.925 81.046 C 301.219 79.433,297.843 76.215,295.423 73.895 C 293.002 71.575,289.357 68.085,287.324 66.139 C 285.290 64.193,280.954 60.043,277.687 56.917 C 274.421 53.790,271.240 50.717,270.620 50.088 C 269.334 48.783,268.654 48.709,266.872 49.675 M123.944 178.458 C 122.821 178.967,120.565 180.587,119.871 181.384 C 119.208 182.145,113.643 187.442,106.008 194.581 C 104.373 196.109,101.975 198.389,100.678 199.648 C 99.381 200.907,96.837 203.322,95.023 205.015 C 91.820 208.006,90.347 209.409,89.853 209.943 C 89.376 210.458,80.215 219.301,74.983 224.296 C 59.555 239.027,60.578 237.642,60.570 243.802 L 60.563 248.343 61.769 250.140 C 62.433 251.128,65.453 254.313,68.481 257.218 C 76.766 265.167,79.786 268.055,80.693 268.896 C 81.144 269.315,81.673 269.827,81.866 270.035 C 82.060 270.242,83.882 272.005,85.915 273.952 C 87.949 275.899,89.721 277.605,89.853 277.743 C 90.489 278.405,91.976 279.835,94.609 282.317 C 96.195 283.812,99.913 287.333,102.871 290.141 C 105.829 292.949,109.179 296.118,110.316 297.183 C 112.415 299.149,115.093 301.695,119.542 305.956 C 123.289 309.543,124.870 310.133,126.134 308.416 C 126.575 307.817,127.370 307.101,127.899 306.826 C 128.428 306.551,129.090 305.884,129.369 305.344 C 129.648 304.804,130.278 304.179,130.769 303.956 C 131.260 303.732,131.985 302.949,132.381 302.215 C 132.777 301.481,133.345 300.542,133.643 300.129 C 134.114 299.478,134.119 299.311,133.683 298.874 C 133.407 298.598,132.860 297.747,132.470 296.985 C 132.079 296.222,131.354 295.249,130.859 294.822 C 130.364 294.394,129.648 293.433,129.266 292.685 C 128.885 291.938,128.314 291.112,127.998 290.850 C 127.683 290.587,127.006 289.647,126.496 288.760 C 125.985 287.874,125.109 286.673,124.549 286.092 C 123.989 285.511,123.285 284.560,122.985 283.979 C 122.685 283.398,122.222 282.795,121.957 282.640 C 121.691 282.484,121.160 281.742,120.777 280.990 C 120.394 280.239,119.788 279.415,119.431 279.161 C 119.075 278.906,118.330 277.905,117.777 276.937 C 117.224 275.968,116.262 274.599,115.640 273.895 C 115.018 273.190,114.407 272.293,114.283 271.902 C 114.159 271.512,113.826 271.103,113.542 270.994 C 113.259 270.885,112.433 269.880,111.707 268.760 C 110.981 267.640,109.956 266.170,109.428 265.492 C 108.900 264.815,107.484 262.914,106.281 261.268 C 105.077 259.621,103.964 258.222,103.807 258.157 C 103.248 257.928,103.533 257.060,104.313 256.615 C 104.952 256.250,126.634 256.128,216.373 255.986 C 322.101 255.819,327.698 255.779,328.785 255.185 L 329.930 254.559 329.930 243.838 L 329.930 233.117 328.785 232.491 C 327.698 231.897,322.093 231.857,216.163 231.690 C 122.384 231.542,104.593 231.437,104.103 231.031 C 103.491 230.522,103.309 229.577,103.823 229.577 C 103.990 229.577,104.697 228.746,105.395 227.729 C 106.093 226.712,107.379 224.930,108.252 223.768 C 109.126 222.606,110.494 220.663,111.292 219.450 C 112.091 218.238,113.020 217.050,113.358 216.810 C 113.696 216.570,114.175 215.977,114.423 215.493 C 114.671 215.009,115.304 214.137,115.830 213.556 C 116.357 212.975,117.237 211.708,117.785 210.739 C 118.334 209.771,119.075 208.770,119.431 208.515 C 119.788 208.261,120.387 207.468,120.763 206.755 C 121.139 206.041,121.850 205.085,122.343 204.629 C 122.836 204.172,123.239 203.608,123.239 203.374 C 123.239 203.140,123.726 202.483,124.320 201.914 C 124.914 201.346,125.856 200.085,126.412 199.112 C 126.969 198.139,127.830 196.963,128.325 196.498 C 128.820 196.033,129.225 195.447,129.225 195.197 C 129.225 194.947,129.906 193.975,130.739 193.038 C 131.571 192.100,132.462 190.827,132.718 190.209 C 132.974 189.591,133.306 189.085,133.456 189.085 C 134.043 189.085,134.080 188.047,133.517 187.364 C 133.190 186.967,132.535 186.005,132.060 185.224 C 131.586 184.444,130.921 183.718,130.581 183.610 C 130.242 183.502,129.632 182.876,129.225 182.218 C 128.819 181.560,128.177 180.924,127.799 180.804 C 127.421 180.684,126.697 180.042,126.190 179.378 C 125.262 178.161,124.914 178.018,123.944 178.458 M128.214 181.778 C 130.029 183.570,131.913 185.748,132.400 186.620 L 133.286 188.204 132.320 190.102 C 131.788 191.146,131.041 192.219,130.659 192.487 C 130.278 192.754,129.541 193.752,129.022 194.705 C 128.504 195.658,127.869 196.519,127.612 196.617 C 127.355 196.716,126.800 197.478,126.379 198.310 C 125.957 199.143,125.000 200.494,124.250 201.313 C 123.501 202.131,122.887 202.932,122.887 203.092 C 122.887 203.252,122.333 203.989,121.655 204.729 C 120.977 205.469,120.423 206.263,120.423 206.492 C 120.423 206.722,119.936 207.376,119.342 207.945 C 118.748 208.513,117.806 209.775,117.250 210.747 C 116.693 211.720,115.832 212.896,115.337 213.361 C 114.842 213.827,114.437 214.412,114.437 214.662 C 114.437 214.912,113.945 215.619,113.345 216.233 C 112.745 216.847,111.689 218.239,110.999 219.326 C 110.308 220.413,109.389 221.638,108.955 222.047 C 108.521 222.456,107.920 223.248,107.619 223.807 C 107.318 224.366,106.590 225.360,106.001 226.016 C 105.412 226.672,104.930 227.340,104.930 227.500 C 104.930 227.661,104.429 228.362,103.817 229.059 L 102.705 230.326 103.475 231.096 L 104.245 231.866 215.943 232.042 C 306.379 232.185,327.793 232.305,328.438 232.674 L 329.235 233.129 329.142 243.941 L 329.049 254.754 327.817 255.174 C 326.873 255.496,300.746 255.599,216.152 255.614 C 99.635 255.635,103.896 255.581,102.987 257.052 C 102.755 257.427,103.998 259.285,106.426 262.194 C 107.152 263.064,107.746 263.912,107.746 264.079 C 107.746 264.246,108.186 264.830,108.723 265.378 C 109.260 265.925,110.243 267.245,110.906 268.310 C 111.570 269.375,112.557 270.657,113.099 271.158 C 113.641 271.660,114.085 272.237,114.085 272.440 C 114.085 272.644,114.717 273.576,115.490 274.511 C 116.262 275.446,117.127 276.700,117.410 277.297 C 117.693 277.894,118.268 278.691,118.688 279.068 C 119.107 279.445,119.991 280.546,120.651 281.514 C 123.566 285.786,124.308 286.775,124.818 287.060 C 125.116 287.227,125.761 288.154,126.251 289.121 C 126.741 290.087,127.352 290.959,127.610 291.058 C 127.868 291.157,128.504 292.018,129.022 292.971 C 129.541 293.924,130.262 294.911,130.624 295.165 C 130.986 295.419,131.741 296.510,132.302 297.590 L 133.321 299.554 132.417 301.099 C 130.767 303.921,125.022 309.289,124.153 308.820 C 122.207 307.771,121.621 307.351,120.281 306.048 C 116.824 302.685,113.181 299.216,109.492 295.775 C 107.312 293.741,104.614 291.206,103.497 290.141 C 102.379 289.076,99.363 286.224,96.794 283.803 C 94.225 281.382,91.473 278.728,90.678 277.905 C 89.883 277.082,89.056 276.408,88.841 276.408 C 88.626 276.408,88.121 275.851,87.720 275.171 C 87.318 274.490,86.597 273.784,86.117 273.601 C 85.637 273.419,84.998 272.792,84.696 272.209 C 84.395 271.625,83.831 270.978,83.445 270.772 C 83.058 270.565,81.515 269.209,80.015 267.759 C 78.516 266.309,75.850 263.740,74.092 262.051 C 64.688 253.012,62.993 251.305,62.527 250.405 C 62.247 249.863,61.770 249.215,61.467 248.963 C 60.563 248.213,60.665 239.420,61.588 238.585 C 61.957 238.251,62.447 237.525,62.676 236.972 C 62.905 236.419,63.707 235.541,64.458 235.021 C 65.209 234.500,65.918 233.776,66.034 233.410 C 66.150 233.045,66.364 232.746,66.510 232.746 C 66.655 232.746,68.289 231.281,70.140 229.489 C 79.352 220.574,82.636 217.467,83.331 217.010 C 83.749 216.735,84.459 215.973,84.908 215.317 C 85.358 214.661,86.002 214.052,86.340 213.964 C 86.678 213.875,87.291 213.233,87.702 212.535 C 88.113 211.838,88.643 211.268,88.880 211.268 C 89.116 211.268,89.954 210.594,90.740 209.771 C 91.527 208.948,93.814 206.733,95.821 204.848 C 97.829 202.963,100.604 200.349,101.987 199.038 C 103.371 197.727,106.530 194.754,109.007 192.430 C 113.069 188.620,115.595 186.208,120.423 181.533 C 121.294 180.689,122.349 179.898,122.767 179.775 C 123.186 179.651,123.720 179.319,123.955 179.036 C 124.609 178.248,124.691 178.301,128.214 181.778 " stroke="none" fill="#000000" fill-rule="evenodd"></path><path id="path3" d="M267.303 50.018 C 265.818 50.816,260.784 55.724,259.647 57.482 L 258.794 58.803 259.664 60.182 C 260.143 60.940,260.703 61.664,260.908 61.791 C 261.113 61.918,261.667 62.783,262.138 63.713 C 262.610 64.644,263.234 65.497,263.526 65.609 C 263.817 65.720,264.445 66.572,264.920 67.501 C 265.396 68.430,266.113 69.388,266.513 69.629 C 266.913 69.871,267.638 70.852,268.123 71.810 C 268.609 72.768,269.221 73.680,269.485 73.836 C 269.748 73.992,270.415 74.833,270.967 75.704 C 271.519 76.576,272.248 77.526,272.587 77.817 C 272.927 78.107,273.447 78.819,273.743 79.397 C 274.039 79.976,274.685 80.927,275.178 81.510 C 276.637 83.236,279.540 87.286,280.115 88.398 C 280.408 88.966,281.035 89.683,281.508 89.993 C 281.980 90.303,282.458 90.842,282.569 91.192 C 282.680 91.541,284.277 93.854,286.119 96.330 L 289.467 100.834 288.564 101.737 L 287.660 102.641 175.960 102.817 C 114.525 102.914,63.983 103.129,63.644 103.295 C 62.696 103.759,62.696 125.114,63.644 125.579 C 63.983 125.744,114.438 125.960,175.766 126.056 L 287.272 126.232 288.244 126.958 C 289.609 127.977,289.602 128.154,288.118 129.983 C 287.391 130.879,286.479 132.058,286.092 132.602 C 285.704 133.146,284.862 134.287,284.221 135.137 C 283.579 135.988,282.881 137.063,282.670 137.527 C 282.459 137.991,281.917 138.612,281.467 138.907 C 281.017 139.202,280.385 139.957,280.062 140.584 C 279.740 141.212,278.786 142.607,277.942 143.684 C 277.099 144.761,276.408 145.819,276.408 146.035 C 276.408 146.251,276.034 146.722,275.576 147.083 C 275.118 147.443,274.476 148.255,274.149 148.887 C 273.822 149.520,273.270 150.322,272.923 150.669 C 272.576 151.016,271.763 152.077,271.117 153.027 C 270.471 153.976,269.732 154.881,269.474 155.037 C 269.217 155.194,268.627 156.065,268.165 156.974 C 267.702 157.883,266.896 159.023,266.374 159.507 C 265.852 159.991,265.122 160.976,264.753 161.696 C 264.384 162.416,263.777 163.168,263.403 163.368 C 263.029 163.568,262.618 164.088,262.488 164.524 C 262.359 164.960,261.825 165.871,261.303 166.549 C 260.781 167.227,259.988 168.304,259.542 168.943 L 258.731 170.104 259.636 171.471 C 260.134 172.223,261.203 173.443,262.012 174.183 C 262.822 174.923,264.036 176.117,264.710 176.837 C 265.853 178.056,268.247 179.577,269.024 179.577 C 269.345 179.577,273.098 176.056,276.955 172.135 C 277.405 171.677,279.773 169.401,282.216 167.077 C 284.659 164.754,288.220 161.347,290.129 159.507 C 292.038 157.667,293.892 155.907,294.247 155.596 C 294.603 155.285,295.156 154.730,295.476 154.364 C 295.796 153.997,297.590 152.271,299.464 150.528 C 301.338 148.785,304.758 145.537,307.065 143.310 C 309.372 141.083,312.470 138.151,313.949 136.796 C 315.428 135.440,318.639 132.398,321.083 130.034 C 323.528 127.671,326.492 124.819,327.671 123.696 C 330.784 120.730,330.986 120.168,330.986 114.449 C 330.986 108.681,330.675 107.846,327.442 104.930 C 326.261 103.864,323.346 101.092,320.965 98.768 C 318.584 96.444,315.420 93.433,313.934 92.077 C 312.447 90.722,309.338 87.790,307.024 85.563 C 304.710 83.336,301.297 80.088,299.439 78.345 C 296.428 75.520,295.554 74.675,294.489 73.560 C 294.193 73.249,291.879 71.034,282.565 62.148 C 279.926 59.630,275.862 55.709,273.533 53.433 C 269.005 49.010,269.091 49.057,267.303 50.018 M270.314 51.849 C 270.711 52.284,271.889 53.405,272.930 54.338 C 275.031 56.220,275.003 56.194,276.410 57.718 C 276.960 58.315,277.622 58.803,277.880 58.803 C 278.138 58.803,278.570 59.301,278.839 59.909 C 279.122 60.549,279.753 61.176,280.334 61.395 C 280.887 61.604,281.431 62.062,281.542 62.413 C 281.823 63.297,283.109 64.437,283.826 64.437 C 284.161 64.437,284.621 64.918,284.877 65.536 C 285.161 66.221,285.772 66.820,286.498 67.123 C 287.238 67.432,287.745 67.935,287.888 68.502 C 288.027 69.059,288.610 69.649,289.437 70.070 C 290.233 70.477,290.847 71.086,290.975 71.596 C 291.101 72.100,291.627 72.628,292.266 72.892 C 292.858 73.138,293.575 73.787,293.858 74.335 C 294.142 74.883,294.728 75.519,295.162 75.748 C 295.596 75.977,296.609 76.814,297.414 77.607 C 298.220 78.400,299.127 79.287,299.431 79.577 C 299.735 79.868,300.375 80.502,300.852 80.986 C 301.687 81.832,302.640 82.776,303.971 84.073 C 304.315 84.409,306.058 86.065,307.844 87.753 C 311.304 91.024,312.400 92.076,313.328 93.021 C 313.647 93.346,315.313 94.930,317.029 96.542 C 318.746 98.153,321.439 100.735,323.015 102.278 C 324.591 103.821,326.419 105.526,327.078 106.067 C 329.782 108.286,329.930 108.720,329.930 114.437 C 329.930 119.749,329.555 121.109,327.793 122.198 C 327.438 122.418,318.674 130.761,315.326 134.067 C 314.492 134.890,313.661 135.563,313.479 135.563 C 313.296 135.563,312.923 135.982,312.649 136.494 C 312.375 137.005,311.569 137.792,310.857 138.241 C 310.145 138.690,309.464 139.369,309.343 139.750 C 309.223 140.130,308.560 140.774,307.872 141.181 C 307.183 141.587,306.536 142.239,306.434 142.631 C 306.331 143.022,305.646 143.649,304.910 144.024 C 304.174 144.399,303.469 145.032,303.343 145.430 C 303.216 145.828,302.492 146.545,301.733 147.025 C 300.973 147.504,300.352 148.130,300.352 148.415 C 300.352 148.701,299.722 149.332,298.953 149.818 C 298.183 150.304,297.288 151.107,296.964 151.601 C 296.640 152.096,295.925 152.733,295.376 153.017 C 294.827 153.301,294.145 153.983,293.861 154.534 C 293.576 155.084,292.871 155.730,292.293 155.970 C 291.685 156.221,291.101 156.811,290.907 157.369 C 290.711 157.932,290.127 158.517,289.506 158.774 C 288.896 159.027,288.256 159.661,288.009 160.257 C 287.755 160.872,287.117 161.492,286.455 161.768 C 285.771 162.054,285.155 162.667,284.877 163.337 C 284.607 163.989,284.165 164.437,283.791 164.437 C 283.170 164.437,281.338 166.297,281.338 166.928 C 281.338 167.107,281.107 167.254,280.824 167.254 C 280.256 167.254,278.521 168.976,278.521 169.541 C 278.521 169.738,278.039 170.112,277.449 170.373 C 276.859 170.634,276.110 171.267,275.785 171.779 C 275.459 172.292,274.953 172.859,274.661 173.040 C 274.368 173.220,273.103 174.369,271.849 175.592 C 270.595 176.816,269.325 177.805,269.027 177.790 C 267.410 177.709,265.683 176.859,265.142 175.876 C 264.824 175.298,264.138 174.617,263.618 174.364 C 263.099 174.111,262.433 173.439,262.139 172.871 C 261.846 172.303,261.212 171.580,260.732 171.266 C 259.611 170.531,259.629 169.950,260.801 169.029 C 261.319 168.621,262.033 167.640,262.388 166.847 C 262.743 166.054,263.580 164.842,264.249 164.153 C 264.918 163.465,265.565 162.445,265.688 161.887 C 265.823 161.269,266.235 160.750,266.744 160.556 C 267.202 160.382,267.921 159.560,268.341 158.729 C 268.762 157.898,269.307 157.100,269.554 156.956 C 269.800 156.812,270.435 155.940,270.964 155.019 C 271.494 154.099,272.388 152.912,272.951 152.382 C 273.514 151.853,274.208 150.861,274.493 150.179 C 274.778 149.497,275.484 148.518,276.062 148.003 C 276.640 147.488,277.113 146.843,277.113 146.569 C 277.113 146.295,277.707 145.481,278.433 144.760 C 279.159 144.039,280.150 142.638,280.634 141.648 C 281.118 140.657,281.846 139.690,282.251 139.499 C 282.656 139.307,283.273 138.541,283.622 137.797 C 283.971 137.053,284.472 136.317,284.734 136.162 C 284.997 136.007,285.750 135.056,286.406 134.049 C 287.063 133.042,288.086 131.701,288.679 131.069 C 290.270 129.375,290.512 127.572,289.292 126.522 L 288.341 125.704 177.357 125.663 C 116.316 125.640,65.898 125.519,65.317 125.395 L 64.261 125.169 64.261 114.437 L 64.261 103.704 65.317 103.478 C 65.898 103.354,116.238 103.234,177.184 103.211 C 261.043 103.179,288.215 103.069,288.900 102.757 C 290.583 101.990,290.362 99.485,288.439 97.535 C 287.962 97.051,287.041 95.831,286.392 94.824 C 285.743 93.817,284.997 92.867,284.734 92.711 C 284.472 92.556,283.971 91.821,283.622 91.076 C 283.273 90.332,282.652 89.570,282.243 89.384 C 281.834 89.198,281.040 88.103,280.477 86.953 C 279.915 85.802,279.073 84.610,278.607 84.304 C 278.140 83.998,277.533 83.209,277.257 82.550 C 276.982 81.891,276.370 81.098,275.896 80.788 C 275.423 80.478,274.868 79.716,274.663 79.096 C 274.458 78.475,273.763 77.418,273.119 76.748 C 272.474 76.077,271.509 74.776,270.975 73.856 C 270.441 72.936,269.863 72.183,269.692 72.183 C 269.521 72.183,269.042 71.520,268.628 70.709 C 267.788 69.061,267.348 68.549,266.494 68.226 C 266.174 68.105,265.811 67.548,265.688 66.988 C 265.565 66.429,264.939 65.428,264.296 64.764 C 263.653 64.100,262.775 62.864,262.345 62.019 C 261.915 61.173,261.149 60.125,260.643 59.689 L 259.722 58.897 261.375 57.007 C 262.284 55.968,263.028 54.996,263.028 54.848 C 263.028 54.699,263.267 54.577,263.560 54.577 C 263.852 54.577,264.525 53.955,265.056 53.193 C 265.698 52.273,266.434 51.695,267.254 51.469 C 269.148 50.946,269.535 50.994,270.314 51.849 M123.955 179.036 C 123.720 179.319,123.186 179.651,122.767 179.775 C 122.349 179.898,121.294 180.689,120.423 181.533 C 115.595 186.208,113.069 188.620,109.007 192.430 C 106.530 194.754,103.371 197.727,101.987 199.038 C 100.604 200.349,97.829 202.963,95.821 204.848 C 93.814 206.733,91.527 208.948,90.740 209.771 C 89.954 210.594,89.116 211.268,88.880 211.268 C 88.643 211.268,88.113 211.838,87.702 212.535 C 87.291 213.233,86.678 213.875,86.340 213.964 C 86.002 214.052,85.358 214.661,84.908 215.317 C 84.459 215.973,83.749 216.735,83.331 217.010 C 82.636 217.467,79.352 220.574,70.140 229.489 C 68.289 231.281,66.655 232.746,66.510 232.746 C 66.364 232.746,66.150 233.045,66.034 233.410 C 65.918 233.776,65.209 234.500,64.458 235.021 C 63.707 235.541,62.905 236.419,62.676 236.972 C 62.447 237.525,61.957 238.251,61.588 238.585 C 60.665 239.420,60.563 248.213,61.467 248.963 C 61.770 249.215,62.247 249.863,62.527 250.405 C 62.993 251.305,64.688 253.012,74.092 262.051 C 75.850 263.740,78.516 266.309,80.015 267.759 C 81.515 269.209,83.058 270.565,83.445 270.772 C 83.831 270.978,84.395 271.625,84.696 272.209 C 84.998 272.792,85.637 273.419,86.117 273.601 C 86.597 273.784,87.318 274.490,87.720 275.171 C 88.121 275.851,88.626 276.408,88.841 276.408 C 89.056 276.408,89.883 277.082,90.678 277.905 C 91.473 278.728,94.225 281.382,96.794 283.803 C 99.363 286.224,102.379 289.076,103.497 290.141 C 104.614 291.206,107.312 293.741,109.492 295.775 C 113.181 299.216,116.824 302.685,120.281 306.048 C 121.621 307.351,122.207 307.771,124.153 308.820 C 125.022 309.289,130.767 303.921,132.417 301.099 L 133.321 299.554 132.302 297.590 C 131.741 296.510,130.986 295.419,130.624 295.165 C 130.262 294.911,129.541 293.924,129.022 292.971 C 128.504 292.018,127.868 291.157,127.610 291.058 C 127.352 290.959,126.741 290.087,126.251 289.121 C 125.761 288.154,125.116 287.227,124.818 287.060 C 124.308 286.775,123.566 285.786,120.651 281.514 C 119.991 280.546,119.107 279.445,118.688 279.068 C 118.268 278.691,117.693 277.894,117.410 277.297 C 117.127 276.700,116.262 275.446,115.490 274.511 C 114.717 273.576,114.085 272.644,114.085 272.440 C 114.085 272.237,113.641 271.660,113.099 271.158 C 112.557 270.657,111.570 269.375,110.906 268.310 C 110.243 267.245,109.260 265.925,108.723 265.378 C 108.186 264.830,107.746 264.246,107.746 264.079 C 107.746 263.912,107.152 263.064,106.426 262.194 C 103.998 259.285,102.755 257.427,102.987 257.052 C 103.896 255.581,99.635 255.635,216.152 255.614 C 300.746 255.599,326.873 255.496,327.817 255.174 L 329.049 254.754 329.142 243.941 L 329.235 233.129 328.438 232.674 C 327.793 232.305,306.379 232.185,215.943 232.042 L 104.245 231.866 103.475 231.096 L 102.705 230.326 103.817 229.059 C 104.429 228.362,104.930 227.661,104.930 227.500 C 104.930 227.340,105.412 226.672,106.001 226.016 C 106.590 225.360,107.318 224.366,107.619 223.807 C 107.920 223.248,108.521 222.456,108.955 222.047 C 109.389 221.638,110.308 220.413,110.999 219.326 C 111.689 218.239,112.745 216.847,113.345 216.233 C 113.945 215.619,114.437 214.912,114.437 214.662 C 114.437 214.412,114.842 213.827,115.337 213.361 C 115.832 212.896,116.693 211.720,117.250 210.747 C 117.806 209.775,118.748 208.513,119.342 207.945 C 119.936 207.376,120.423 206.722,120.423 206.492 C 120.423 206.263,120.977 205.469,121.655 204.729 C 122.333 203.989,122.887 203.252,122.887 203.092 C 122.887 202.932,123.501 202.131,124.250 201.313 C 125.000 200.494,125.957 199.143,126.379 198.310 C 126.800 197.478,127.355 196.716,127.612 196.617 C 127.869 196.519,128.504 195.658,129.022 194.705 C 129.541 193.752,130.278 192.754,130.659 192.487 C 131.041 192.219,131.788 191.146,132.320 190.102 L 133.286 188.204 132.400 186.620 C 131.573 185.141,125.237 178.521,124.648 178.521 C 124.502 178.521,124.190 178.753,123.955 179.036 M127.135 182.042 C 127.311 182.042,127.871 182.671,128.379 183.439 C 128.888 184.208,129.606 184.932,129.975 185.050 C 132.167 185.745,132.326 190.213,130.204 191.473 C 129.677 191.785,129.008 192.635,128.717 193.362 C 128.427 194.088,127.867 194.855,127.474 195.065 C 127.081 195.276,126.381 196.195,125.918 197.108 C 125.455 198.021,124.737 199.074,124.322 199.449 C 123.908 199.823,123.228 200.695,122.812 201.385 C 122.396 202.076,121.530 203.235,120.887 203.962 C 120.244 204.689,119.718 205.513,119.718 205.793 C 119.718 206.073,119.176 206.716,118.513 207.222 C 117.850 207.727,117.155 208.578,116.969 209.113 C 116.783 209.647,115.924 210.951,115.062 212.010 C 114.200 213.068,113.391 214.346,113.265 214.848 C 113.139 215.350,112.719 215.844,112.331 215.945 C 111.943 216.047,111.347 216.632,111.007 217.246 C 110.666 217.859,109.636 219.340,108.718 220.536 C 107.800 221.733,107.047 222.843,107.045 223.005 C 107.044 223.166,106.488 223.837,105.810 224.495 C 105.132 225.153,104.577 225.932,104.577 226.226 C 104.577 226.520,103.944 227.394,103.169 228.169 C 101.472 229.866,101.330 231.040,102.713 231.946 C 103.619 232.540,109.209 232.579,215.654 232.749 C 277.247 232.847,327.680 232.966,327.729 233.013 C 327.777 233.060,327.817 237.931,327.817 243.838 C 327.817 249.745,327.777 254.616,327.729 254.663 C 327.680 254.710,277.254 254.829,215.669 254.927 C 154.085 255.025,103.456 255.228,103.161 255.377 C 101.517 256.208,101.461 258.873,103.072 259.607 C 103.594 259.845,104.233 260.639,104.611 261.521 C 104.966 262.350,105.404 263.028,105.585 263.028 C 105.765 263.028,106.434 263.841,107.072 264.835 C 107.709 265.828,108.756 267.269,109.397 268.037 C 110.039 268.805,110.563 269.606,110.563 269.817 C 110.563 270.352,112.003 271.831,112.523 271.831 C 112.759 271.831,113.060 272.267,113.191 272.799 C 113.323 273.332,114.030 274.482,114.764 275.356 C 115.497 276.229,116.427 277.591,116.831 278.383 C 117.235 279.174,117.974 280.090,118.474 280.417 C 118.974 280.745,119.636 281.645,119.945 282.418 C 120.254 283.191,120.805 283.982,121.168 284.177 C 121.531 284.371,122.131 285.119,122.500 285.839 C 122.869 286.559,123.598 287.544,124.120 288.028 C 124.642 288.512,125.450 289.655,125.915 290.568 C 126.379 291.481,127.081 292.400,127.474 292.611 C 127.867 292.821,128.427 293.588,128.717 294.314 C 129.008 295.041,129.677 295.891,130.204 296.204 C 132.888 297.797,132.329 300.506,128.578 304.085 C 127.288 305.315,125.930 306.620,125.560 306.985 C 124.976 307.562,124.767 307.590,123.975 307.199 C 123.474 306.952,122.624 306.580,122.088 306.372 C 121.552 306.164,120.960 305.594,120.774 305.104 C 120.588 304.614,120.055 304.068,119.590 303.891 C 119.125 303.715,118.375 303.044,117.924 302.401 C 117.472 301.758,116.939 301.166,116.738 301.086 C 116.537 301.005,115.644 300.213,114.753 299.325 C 113.862 298.438,110.858 295.572,108.078 292.958 C 105.298 290.343,102.293 287.491,101.400 286.620 C 100.507 285.748,98.282 283.640,96.455 281.935 C 94.629 280.231,92.392 278.131,91.486 277.270 C 90.580 276.409,89.673 275.704,89.471 275.704 C 89.268 275.704,88.854 275.223,88.549 274.635 C 88.245 274.046,87.460 273.309,86.805 272.997 C 86.138 272.679,85.525 272.077,85.413 271.631 C 85.303 271.192,84.695 270.513,84.062 270.122 C 83.430 269.731,82.547 268.917,82.101 268.314 C 81.655 267.710,80.942 267.058,80.517 266.865 C 80.093 266.671,79.490 266.068,79.178 265.524 C 78.866 264.980,78.119 264.318,77.518 264.052 C 76.917 263.786,76.250 263.143,76.034 262.623 C 75.819 262.103,75.166 261.447,74.584 261.165 C 74.001 260.883,73.339 260.280,73.113 259.826 C 72.886 259.372,72.149 258.628,71.474 258.173 C 70.799 257.719,70.135 257.047,69.999 256.681 C 69.863 256.316,69.123 255.619,68.355 255.134 C 67.586 254.649,66.854 253.927,66.728 253.530 C 66.602 253.134,66.055 252.579,65.512 252.299 C 61.402 250.173,61.537 237.696,65.696 235.242 C 66.359 234.851,66.901 234.290,66.901 233.995 C 66.901 233.701,67.554 233.048,68.351 232.545 C 69.148 232.041,69.881 231.319,69.980 230.940 C 70.080 230.560,70.772 229.938,71.518 229.557 C 72.371 229.123,72.959 228.534,73.099 227.976 C 73.238 227.421,73.746 226.910,74.452 226.615 C 75.115 226.338,75.759 225.718,76.008 225.116 C 76.256 224.517,76.869 223.924,77.476 223.695 C 78.049 223.479,78.796 222.808,79.136 222.204 C 79.476 221.601,80.107 221.016,80.540 220.904 C 80.972 220.793,81.656 220.167,82.060 219.513 C 82.464 218.860,83.219 218.124,83.739 217.877 C 84.258 217.631,84.921 216.935,85.211 216.330 C 85.502 215.726,86.158 215.072,86.670 214.878 C 87.182 214.685,87.892 214.070,88.246 213.513 C 88.601 212.956,89.133 212.352,89.428 212.171 C 89.723 211.990,90.678 211.175,91.549 210.360 C 92.421 209.545,94.634 207.474,96.467 205.759 C 98.300 204.044,100.531 201.928,101.426 201.056 C 102.320 200.185,105.253 197.412,107.943 194.894 C 110.633 192.377,113.563 189.587,114.455 188.696 C 115.346 187.804,116.302 186.933,116.579 186.759 C 116.855 186.586,117.524 185.849,118.066 185.123 C 118.607 184.397,119.278 183.803,119.557 183.803 C 119.836 183.803,120.422 183.247,120.859 182.567 C 121.400 181.727,122.073 181.217,122.960 180.973 C 123.679 180.776,124.362 180.459,124.480 180.268 C 124.598 180.078,125.171 180.399,125.754 180.982 C 126.338 181.565,126.959 182.042,127.135 182.042 " stroke="none" fill="#000000" fill-rule="evenodd"></path><path id="path4" d="M266.740 48.144 C 265.688 48.411,258.479 55.832,257.881 57.263 C 257.188 58.923,257.499 60.184,259.111 62.241 C 259.829 63.158,260.785 64.511,261.234 65.247 C 261.684 65.983,262.422 66.828,262.874 67.124 C 263.327 67.421,263.877 68.211,264.098 68.879 C 264.319 69.548,264.877 70.343,265.339 70.646 C 265.801 70.948,266.600 72.056,267.114 73.106 C 267.628 74.157,268.503 75.341,269.059 75.737 C 269.616 76.132,270.070 76.699,270.070 76.996 C 270.070 77.292,270.594 78.059,271.234 78.699 C 271.874 79.339,272.696 80.523,273.060 81.330 C 273.424 82.137,274.150 83.142,274.674 83.564 C 275.198 83.986,275.968 85.012,276.385 85.845 C 276.803 86.677,277.374 87.446,277.655 87.554 C 277.936 87.662,278.597 88.543,279.124 89.511 C 279.651 90.480,280.430 91.405,280.854 91.566 C 281.323 91.744,281.720 92.292,281.867 92.963 C 282.001 93.570,282.824 94.871,283.697 95.854 C 284.571 96.837,285.435 98.071,285.618 98.596 C 285.801 99.121,286.351 99.733,286.841 99.957 C 289.660 101.241,290.714 101.227,175.499 101.410 C 113.930 101.508,63.522 101.627,63.481 101.674 C 63.439 101.722,62.845 102.252,62.160 102.853 L 60.915 103.946 60.927 114.385 L 60.938 124.824 61.813 125.818 C 63.302 127.512,60.013 127.465,176.121 127.465 C 292.286 127.465,288.957 127.421,286.882 128.932 C 286.386 129.293,285.644 130.234,285.233 131.024 C 284.822 131.813,284.043 132.830,283.503 133.284 C 282.964 133.739,282.304 134.771,282.037 135.578 C 281.771 136.386,281.306 137.139,281.005 137.252 C 280.286 137.521,279.656 138.298,279.031 139.688 C 278.751 140.310,278.206 140.989,277.819 141.196 C 277.432 141.403,276.782 142.225,276.376 143.022 C 275.969 143.819,275.113 145.010,274.473 145.668 C 273.834 146.327,273.102 147.373,272.848 147.993 C 272.594 148.613,272.019 149.412,271.571 149.768 C 271.123 150.125,270.537 150.944,270.267 151.589 C 269.998 152.233,269.456 152.932,269.064 153.143 C 268.671 153.353,267.846 154.469,267.231 155.623 C 266.616 156.777,265.750 157.959,265.306 158.249 C 264.862 158.540,264.319 159.325,264.098 159.994 C 263.877 160.663,263.327 161.452,262.874 161.749 C 262.422 162.045,261.684 162.890,261.234 163.626 C 260.785 164.363,259.822 165.724,259.095 166.652 C 256.415 170.073,256.805 171.306,262.322 176.835 C 267.012 181.537,269.846 182.395,271.313 179.557 C 271.617 178.971,272.260 178.341,272.743 178.157 C 273.226 177.973,273.887 177.359,274.213 176.792 C 274.538 176.224,275.320 175.514,275.950 175.214 C 276.604 174.902,277.184 174.309,277.304 173.831 C 277.427 173.343,278.011 172.757,278.706 172.426 C 279.361 172.113,280.150 171.369,280.459 170.773 C 280.767 170.176,281.412 169.539,281.892 169.356 C 282.371 169.174,283.083 168.483,283.474 167.822 C 283.865 167.158,284.580 166.519,285.068 166.396 C 285.555 166.274,286.267 165.642,286.651 164.991 C 287.035 164.340,287.805 163.618,288.363 163.388 C 288.920 163.157,289.562 162.520,289.789 161.972 C 290.016 161.424,290.670 160.782,291.244 160.544 C 291.817 160.306,292.525 159.652,292.815 159.090 C 293.106 158.528,293.736 157.919,294.216 157.737 C 294.695 157.554,295.416 156.848,295.818 156.167 C 296.220 155.487,296.742 154.930,296.978 154.930 C 297.215 154.930,298.039 154.256,298.810 153.433 C 299.580 152.610,301.931 150.352,304.033 148.415 C 306.136 146.479,309.168 143.627,310.771 142.077 C 313.305 139.629,316.088 137.006,318.056 135.211 C 319.092 134.267,320.426 132.982,323.996 129.489 C 325.926 127.601,327.644 126.056,327.813 126.056 C 327.983 126.056,328.216 125.758,328.332 125.392 C 328.448 125.027,329.165 124.298,329.924 123.771 C 330.945 123.064,331.455 122.365,331.877 121.094 C 332.191 120.148,332.595 119.284,332.773 119.174 C 332.952 119.063,333.099 116.931,333.099 114.437 C 333.099 111.942,332.952 109.810,332.773 109.700 C 332.595 109.589,332.191 108.725,331.877 107.778 C 331.449 106.490,330.963 105.831,329.941 105.155 C 329.191 104.659,328.475 103.929,328.349 103.535 C 328.224 103.140,327.979 102.817,327.804 102.817 C 327.630 102.817,326.706 102.064,325.751 101.144 C 324.796 100.224,321.689 97.254,318.847 94.542 C 316.004 91.831,312.442 88.424,310.932 86.972 C 309.421 85.519,306.384 82.667,304.183 80.634 C 301.982 78.600,299.558 76.263,298.795 75.440 C 298.032 74.617,297.205 73.944,296.956 73.944 C 296.707 73.944,296.318 73.587,296.091 73.151 C 295.606 72.219,294.525 71.127,294.088 71.127 C 293.918 71.127,293.279 70.504,292.668 69.743 C 292.056 68.982,291.255 68.264,290.886 68.147 C 290.518 68.030,290.027 67.478,289.796 66.920 C 289.565 66.362,288.920 65.717,288.363 65.486 C 287.805 65.255,287.035 64.533,286.651 63.882 C 286.266 63.230,285.552 62.598,285.060 62.475 C 284.569 62.351,283.837 61.716,283.433 61.063 C 283.029 60.409,282.275 59.672,281.757 59.424 C 281.240 59.175,280.604 58.529,280.344 57.988 C 280.085 57.447,279.342 56.751,278.694 56.441 C 278.020 56.120,277.426 55.527,277.308 55.058 C 277.191 54.592,276.562 53.959,275.854 53.597 C 275.168 53.244,274.413 52.568,274.177 52.094 C 273.940 51.620,273.315 51.025,272.788 50.772 C 272.260 50.520,271.597 49.865,271.315 49.319 C 270.602 47.941,269.079 47.550,266.740 48.144 M270.620 50.088 C 271.240 50.717,274.421 53.790,277.687 56.917 C 280.954 60.043,285.290 64.193,287.324 66.139 C 289.357 68.085,293.002 71.575,295.423 73.895 C 297.843 76.215,301.219 79.433,302.925 81.046 C 304.630 82.659,307.252 85.167,308.751 86.620 C 310.249 88.072,313.358 91.004,315.659 93.134 C 317.961 95.264,321.000 98.133,322.413 99.509 C 323.827 100.885,326.134 103.097,327.541 104.424 C 331.355 108.022,331.690 108.832,331.690 114.435 C 331.690 120.282,331.480 120.721,326.311 125.665 C 324.163 127.720,321.048 130.725,319.389 132.344 C 317.730 133.962,316.079 135.494,315.719 135.748 C 315.360 136.003,312.983 138.215,310.438 140.664 C 307.892 143.112,304.438 146.413,302.762 147.998 C 301.085 149.583,296.759 153.732,293.147 157.218 C 287.473 162.695,284.560 165.454,283.313 166.531 C 283.140 166.680,282.557 167.232,282.018 167.757 C 281.158 168.595,280.551 169.202,278.885 170.894 C 278.664 171.119,276.946 172.763,275.069 174.548 C 273.191 176.333,271.171 178.274,270.579 178.861 C 268.691 180.736,267.117 180.081,262.812 175.632 C 257.801 170.451,257.777 170.375,260.193 167.319 C 260.932 166.384,261.777 165.155,262.070 164.587 C 262.364 164.019,262.954 163.238,263.382 162.851 C 263.809 162.464,264.444 161.593,264.792 160.915 C 265.140 160.238,265.848 159.317,266.366 158.870 C 266.883 158.423,267.529 157.525,267.800 156.876 C 268.072 156.226,268.784 155.166,269.384 154.520 C 269.984 153.874,270.773 152.770,271.138 152.068 C 271.503 151.366,272.037 150.700,272.326 150.590 C 272.614 150.479,273.118 149.865,273.445 149.226 C 273.772 148.586,274.503 147.509,275.069 146.831 C 277.012 144.504,279.930 140.370,279.930 139.944 C 279.930 139.709,280.322 139.260,280.803 138.946 C 281.283 138.631,281.939 137.860,282.262 137.233 C 282.584 136.605,283.538 135.180,284.382 134.067 C 285.225 132.953,286.609 131.130,287.456 130.016 L 288.996 127.989 288.182 127.375 C 287.411 126.794,281.365 126.759,176.166 126.735 C 70.732 126.710,64.910 126.677,63.908 126.090 L 62.852 125.471 62.759 114.543 C 62.675 104.700,62.724 103.567,63.253 103.128 C 63.750 102.716,81.133 102.614,175.670 102.465 C 286.901 102.290,287.504 102.285,288.231 101.585 L 288.962 100.880 287.351 98.768 C 284.874 95.520,284.301 94.728,282.573 92.165 C 281.692 90.858,280.808 89.789,280.608 89.789 C 280.409 89.789,280.030 89.272,279.766 88.641 C 279.502 88.009,278.916 87.090,278.464 86.597 C 277.706 85.772,275.839 83.180,274.120 80.567 C 273.732 79.979,272.901 78.955,272.271 78.293 C 271.642 77.631,271.127 76.946,271.127 76.770 C 271.127 76.595,270.470 75.692,269.666 74.764 C 268.863 73.836,267.987 72.554,267.721 71.915 C 267.454 71.277,266.828 70.402,266.331 69.972 C 265.833 69.542,265.181 68.715,264.882 68.134 C 264.583 67.553,263.950 66.685,263.475 66.205 C 262.999 65.724,262.364 64.853,262.063 64.268 C 261.762 63.683,261.006 62.570,260.382 61.796 C 257.835 58.633,257.901 58.365,262.362 53.733 C 267.108 48.805,268.675 48.114,270.620 50.088 M122.933 177.518 C 122.214 177.724,120.740 178.857,119.194 180.391 C 117.790 181.783,114.290 185.141,111.415 187.852 C 108.540 190.563,105.707 193.274,105.119 193.875 C 104.531 194.477,103.620 195.244,103.095 195.579 C 102.570 195.915,102.047 196.485,101.932 196.845 C 101.818 197.205,101.180 197.837,100.515 198.248 C 99.849 198.659,99.039 199.446,98.714 199.996 C 98.389 200.546,97.749 201.167,97.291 201.376 C 96.833 201.584,96.131 202.311,95.730 202.990 C 95.329 203.669,94.806 204.225,94.569 204.225 C 94.032 204.225,92.606 205.709,92.606 206.268 C 92.606 206.495,92.051 206.912,91.374 207.195 C 90.697 207.478,89.959 208.113,89.734 208.607 C 89.509 209.100,88.793 209.817,88.143 210.201 C 87.493 210.584,86.818 211.273,86.644 211.732 C 86.470 212.191,85.825 212.774,85.211 213.028 C 84.598 213.282,83.957 213.856,83.787 214.303 C 83.617 214.749,82.851 215.511,82.084 215.995 C 81.317 216.479,80.589 217.193,80.465 217.581 C 80.342 217.970,79.612 218.641,78.842 219.074 C 78.072 219.507,77.357 220.201,77.253 220.616 C 77.148 221.032,76.527 221.628,75.871 221.940 C 75.216 222.253,74.440 222.971,74.148 223.537 C 73.854 224.104,73.212 224.667,72.713 224.792 C 72.155 224.932,71.593 225.475,71.239 226.217 C 70.925 226.876,70.335 227.502,69.929 227.607 C 69.523 227.713,68.813 228.358,68.352 229.040 C 67.892 229.723,67.370 230.282,67.192 230.282 C 66.356 230.282,60.252 236.945,59.888 238.254 C 59.400 240.012,59.400 247.664,59.888 249.422 C 60.258 250.754,66.363 257.394,67.218 257.394 C 67.410 257.394,67.774 257.830,68.027 258.363 C 68.279 258.895,68.988 259.569,69.602 259.859 C 70.216 260.150,70.964 260.898,71.265 261.522 C 71.593 262.205,72.171 262.748,72.713 262.884 C 73.212 263.009,73.854 263.572,74.148 264.139 C 74.440 264.705,75.216 265.423,75.871 265.736 C 76.527 266.048,77.150 266.649,77.256 267.071 C 77.361 267.493,78.023 268.142,78.725 268.514 C 79.428 268.886,80.142 269.551,80.313 269.991 C 80.483 270.432,81.142 271.098,81.776 271.472 C 82.410 271.846,83.213 272.635,83.562 273.224 C 83.910 273.814,84.351 274.296,84.542 274.296 C 84.822 274.296,86.910 276.174,89.043 278.345 C 89.878 279.195,91.322 280.597,95.855 284.960 C 98.514 287.519,100.970 289.896,101.313 290.243 C 101.656 290.589,102.314 291.223,102.774 291.651 C 103.235 292.079,103.974 292.800,104.416 293.253 C 105.548 294.413,105.579 294.443,107.887 296.534 C 109.910 298.366,112.702 301.034,118.777 306.939 C 122.900 310.946,125.831 311.651,127.069 308.933 C 127.282 308.466,127.854 307.933,128.341 307.748 C 128.827 307.563,129.526 306.917,129.894 306.312 C 130.262 305.706,131.060 304.909,131.667 304.540 C 132.274 304.171,132.870 303.593,132.993 303.255 C 133.116 302.917,133.744 302.046,134.390 301.319 C 135.861 299.663,135.855 299.303,134.331 297.687 C 133.653 296.968,133.099 296.144,133.099 295.855 C 133.099 295.566,132.563 294.824,131.908 294.206 C 131.253 293.589,130.439 292.540,130.099 291.876 C 129.759 291.212,128.935 290.059,128.267 289.314 C 127.599 288.569,126.890 287.494,126.692 286.926 C 126.494 286.359,125.887 285.664,125.343 285.383 C 124.728 285.065,124.268 284.477,124.125 283.827 C 123.999 283.253,123.457 282.339,122.921 281.797 C 122.386 281.254,121.425 279.987,120.786 278.981 C 120.148 277.975,119.404 277.068,119.134 276.964 C 118.864 276.860,118.335 276.057,117.959 275.179 C 117.532 274.182,116.952 273.459,116.416 273.256 C 115.877 273.051,115.474 272.544,115.330 271.891 C 115.205 271.320,114.630 270.400,114.053 269.846 C 113.476 269.291,112.610 268.085,112.129 267.164 C 111.648 266.244,110.928 265.293,110.528 265.052 C 110.128 264.810,109.509 264.058,109.152 263.380 C 108.795 262.702,108.027 261.636,107.446 261.010 C 106.865 260.384,106.276 259.513,106.137 259.075 C 105.997 258.636,105.645 258.103,105.353 257.890 C 104.031 256.923,109.958 256.860,217.481 256.690 C 340.418 256.496,329.653 256.680,331.069 254.754 C 331.211 254.560,331.330 249.620,331.333 243.775 C 331.338 232.327,331.397 232.707,329.462 231.600 C 328.859 231.254,305.175 231.125,217.183 230.986 C 105.901 230.810,102.671 230.774,105.382 229.734 C 105.695 229.614,106.131 228.973,106.349 228.311 C 106.568 227.649,107.050 226.945,107.421 226.746 C 107.793 226.547,108.398 225.796,108.767 225.076 C 109.137 224.356,109.866 223.371,110.388 222.887 C 110.910 222.403,111.718 221.260,112.182 220.347 C 112.647 219.434,113.355 218.512,113.755 218.298 C 114.155 218.083,114.779 217.217,115.141 216.373 C 115.503 215.529,116.141 214.655,116.559 214.431 C 116.978 214.207,117.633 213.315,118.017 212.449 C 118.400 211.583,118.919 210.795,119.169 210.699 C 119.420 210.602,120.158 209.701,120.810 208.695 C 121.461 207.689,122.423 206.417,122.948 205.868 C 123.472 205.319,124.003 204.405,124.128 203.837 C 124.268 203.199,124.733 202.609,125.343 202.293 C 125.887 202.012,126.489 201.331,126.682 200.779 C 126.874 200.227,127.604 199.153,128.304 198.391 C 129.003 197.630,129.836 196.460,130.155 195.792 C 130.474 195.123,131.266 194.075,131.916 193.461 C 132.567 192.848,133.099 192.147,133.099 191.903 C 133.099 191.658,133.653 190.845,134.331 190.094 C 135.853 188.410,135.861 188.017,134.403 186.357 C 133.765 185.630,132.977 184.611,132.652 184.094 C 132.327 183.576,131.751 183.054,131.373 182.934 C 130.995 182.814,130.360 182.165,129.964 181.493 C 129.567 180.821,128.852 180.122,128.375 179.941 C 127.898 179.760,127.314 179.247,127.077 178.802 C 126.196 177.149,125.242 176.853,122.933 177.518 M126.190 179.378 C 126.697 180.042,127.421 180.684,127.799 180.804 C 128.177 180.924,128.819 181.560,129.225 182.218 C 129.632 182.876,130.242 183.502,130.581 183.610 C 130.921 183.718,131.586 184.444,132.060 185.224 C 132.535 186.005,133.190 186.967,133.517 187.364 C 134.080 188.047,134.043 189.085,133.456 189.085 C 133.306 189.085,132.974 189.591,132.718 190.209 C 132.462 190.827,131.571 192.100,130.739 193.038 C 129.906 193.975,129.225 194.947,129.225 195.197 C 129.225 195.447,128.820 196.033,128.325 196.498 C 127.830 196.963,126.969 198.139,126.412 199.112 C 125.856 200.085,124.914 201.346,124.320 201.914 C 123.726 202.483,123.239 203.140,123.239 203.374 C 123.239 203.608,122.836 204.172,122.343 204.629 C 121.850 205.085,121.139 206.041,120.763 206.755 C 120.387 207.468,119.788 208.261,119.431 208.515 C 119.075 208.770,118.334 209.771,117.785 210.739 C 117.237 211.708,116.357 212.975,115.830 213.556 C 115.304 214.137,114.671 215.009,114.423 215.493 C 114.175 215.977,113.696 216.570,113.358 216.810 C 113.020 217.050,112.091 218.238,111.292 219.450 C 110.494 220.663,109.126 222.606,108.252 223.768 C 107.379 224.930,106.093 226.712,105.395 227.729 C 104.697 228.746,103.990 229.577,103.823 229.577 C 103.309 229.577,103.491 230.522,104.103 231.031 C 104.593 231.437,122.384 231.542,216.163 231.690 C 322.093 231.857,327.698 231.897,328.785 232.491 L 329.930 233.117 329.930 243.838 L 329.930 254.559 328.785 255.185 C 327.698 255.779,322.101 255.819,216.373 255.986 C 126.634 256.128,104.952 256.250,104.313 256.615 C 103.533 257.060,103.248 257.928,103.807 258.157 C 103.964 258.222,105.077 259.621,106.281 261.268 C 107.484 262.914,108.900 264.815,109.428 265.492 C 109.956 266.170,110.981 267.640,111.707 268.760 C 112.433 269.880,113.259 270.885,113.542 270.994 C 113.826 271.103,114.159 271.512,114.283 271.902 C 114.407 272.293,115.018 273.190,115.640 273.895 C 116.262 274.599,117.224 275.968,117.777 276.937 C 118.330 277.905,119.075 278.906,119.431 279.161 C 119.788 279.415,120.394 280.239,120.777 280.990 C 121.160 281.742,121.691 282.484,121.957 282.640 C 122.222 282.795,122.685 283.398,122.985 283.979 C 123.285 284.560,123.989 285.511,124.549 286.092 C 125.109 286.673,125.985 287.874,126.496 288.760 C 127.006 289.647,127.683 290.587,127.998 290.850 C 128.314 291.112,128.885 291.938,129.266 292.685 C 129.648 293.433,130.364 294.394,130.859 294.822 C 131.354 295.249,132.079 296.222,132.470 296.985 C 132.860 297.747,133.407 298.598,133.683 298.874 C 134.119 299.311,134.114 299.478,133.643 300.129 C 133.345 300.542,132.777 301.481,132.381 302.215 C 131.985 302.949,131.260 303.732,130.769 303.956 C 130.278 304.179,129.648 304.804,129.369 305.344 C 129.090 305.884,128.428 306.551,127.899 306.826 C 127.370 307.101,126.575 307.817,126.134 308.416 C 124.870 310.133,123.289 309.543,119.542 305.956 C 115.093 301.695,112.415 299.149,110.316 297.183 C 109.179 296.118,105.829 292.949,102.871 290.141 C 99.913 287.333,96.195 283.812,94.609 282.317 C 91.976 279.835,90.489 278.405,89.853 277.743 C 89.721 277.605,87.949 275.899,85.915 273.952 C 83.882 272.005,82.060 270.242,81.866 270.035 C 81.673 269.827,81.144 269.315,80.693 268.896 C 79.786 268.055,76.766 265.167,68.481 257.218 C 65.453 254.313,62.433 251.128,61.769 250.140 L 60.563 248.343 60.570 243.802 C 60.578 237.642,59.555 239.027,74.983 224.296 C 80.215 219.301,89.376 210.458,89.853 209.943 C 90.347 209.409,91.820 208.006,95.023 205.015 C 96.837 203.322,99.381 200.907,100.678 199.648 C 101.975 198.389,104.373 196.109,106.008 194.581 C 113.643 187.442,119.208 182.145,119.871 181.384 C 120.565 180.587,122.821 178.967,123.944 178.458 C 124.914 178.018,125.262 178.161,126.190 179.378 " stroke="none" fill="#000000" fill-rule="evenodd"></path></g></svg>